# xmcd
#
# Track frame offsets: 
#        150
#        20819
#        37897
#        58809
#        79394
#        96944
#        112012
#        129662
#        146199
#
# Disc length: 2151 seconds
#
# Revision: 0
# Processed by: cddbd v1.4PL0 Copyright (c) Steve Scherf et al.
# Submitted via: ExactAudioCopy v0.90b4
#
DISCID=85086509
DTITLE=Sandy - On My Own Sandy Disk1
DYEAR=2002
DGENRE=Pop
TTITLE0=至少还有你
TTITLE1=远走高飞
TTITLE2=等你说爱我
TTITLE3=不会结束的故事
TTITLE4=爱过我的每一天
TTITLE5=失踪
TTITLE6=默读伤悲
TTITLE7=重过
TTITLE8=飞的理由
EXTD=
EXTT0=
EXTT1=
EXTT2=
EXTT3=
EXTT4=
EXTT5=
EXTT6=
EXTT7=
EXTT8=
PLAYORDER=
